<svg width="400" height="400" viewBox="0 0 400 400" fill="none" xmlns="http://www.w3.org/2000/svg">
  <rect width="400" height="400" rx="24" fill="#0F1116"/>
  <circle cx="200" cy="200" r="130" fill="#182233"/>
  <ellipse cx="200" cy="230" rx="82" ry="92" fill="#E2C9AF"/>
  <circle cx="170" cy="220" r="8" fill="#111418"/>
  <circle cx="230" cy="220" r="8" fill="#111418"/>
  <path d="M168 266C181 280 219 280 232 266" stroke="#111418" stroke-width="6" stroke-linecap="round"/>
  <path d="M108 150C134 106 164 86 200 86C236 86 266 106 292 150C262 138 232 132 200 132C168 132 138 138 108 150Z" fill="#10141C"/>
  <path d="M145 160C162 148 182 142 200 142C218 142 238 148 255 160" stroke="#93C5FF" stroke-width="5" stroke-linecap="round"/>
  <text x="200" y="380" fill="#CBB49A" font-family="Arial, sans-serif" font-size="22" text-anchor="middle">BRUCE LEE</text>
</svg>
