<svg width="1200" height="700" viewBox="0 0 1200 700" fill="none" xmlns="http://www.w3.org/2000/svg">
  <rect width="1200" height="700" fill="#15050D"/>
  <defs>
    <radialGradient id="d1" cx="0" cy="0" r="1" gradientUnits="userSpaceOnUse" gradientTransform="translate(860 210) rotate(128) scale(560 380)">
      <stop stop-color="#8B2F52" stop-opacity="0.74"/>
      <stop offset="1" stop-color="#8B2F52" stop-opacity="0"/>
    </radialGradient>
    <radialGradient id="d2" cx="0" cy="0" r="1" gradientUnits="userSpaceOnUse" gradientTransform="translate(320 520) rotate(28) scale(520 350)">
      <stop stop-color="#5F1E37" stop-opacity="0.52"/>
      <stop offset="1" stop-color="#5F1E37" stop-opacity="0"/>
    </radialGradient>
  </defs>
  <rect width="1200" height="700" fill="url(#d1)"/>
  <rect width="1200" height="700" fill="url(#d2)"/>
  <g opacity="0.16" stroke="#E8BCCF">
    <path d="M0 100H1200M0 200H1200M0 300H1200M0 400H1200M0 500H1200M0 600H1200"/>
    <path d="M100 0V700M200 0V700M300 0V700M400 0V700M500 0V700M600 0V700M700 0V700M800 0V700M900 0V700M1000 0V700M1100 0V700"/>
  </g>
  <g>
    <circle cx="264" cy="250" r="72" fill="#E8BCCF" fill-opacity="0.28"/>
    <path d="M264 188C294 188 318 212 318 242C318 285 264 332 264 332C264 332 210 285 210 242C210 212 234 188 264 188Z" fill="#FFE7F0"/>
    <circle cx="264" cy="242" r="20" fill="#8B2F52"/>
  </g>
  <text x="70" y="650" fill="#FFE7F0" fill-opacity="0.92" font-family="Arial, sans-serif" font-size="32" letter-spacing="2">IDENTITY SHIFT VISUAL</text>
</svg>
